Coordinates
version=1
nRows=9
nColumns=24
inDegrees=yes

Units are S.I. units (second, meters, Newtons, ...)
Angles are in degrees.

endheader
time	pelvis_tilt	pelvis_list	pelvis_rotation	pelvis_tx	pelvis_ty	pelvis_tz	hip_flexion_r	hip_adduction_r	hip_rotation_r	knee_angle_r	ankle_angle_r	subtalar_angle_r	mtp_angle_r	hip_flexion_l	hip_adduction_l	hip_rotation_l	knee_angle_l	ankle_angle_l	subtalar_angle_l	mtp_angle_l	lumbar_extension	lumbar_bending	lumbar_rotation
      0.63383333	     -3.65131440	     -2.81458531	      6.29344620	     -0.45295449	      0.89301705	      0.31898597	     15.88739600	      8.34699269	     -3.59960227	    -29.47501621	     19.94366687	      0.76362142	      2.81809925	     25.72300281	     -6.24035594	     -4.31619776	    -78.53261427	      2.51652944	     -8.70837345	     -0.88630168	     -4.44921135	      3.41899146	      0.50919920
      0.63800000	     -3.71735694	     -2.61700669	      6.16997590	     -0.44744738	      0.89424387	      0.31916977	     15.21940852	      8.20351102	     -3.44195154	    -28.82940890	     19.93546220	      0.88949414	      2.85436439	     26.36710156	     -5.93276115	     -4.52424916	    -78.02886666	      2.77101115	     -8.70256248	     -0.91080332	     -4.38936855	      3.18837169	      0.71653783
      0.64216667	     -3.78029419	     -2.40651443	      6.03201981	     -0.44191660	      0.89548719	      0.31936109	     14.54157499	      8.04534823	     -3.27336687	    -28.17121712	     19.88087666	      1.02225809	      2.87831508	     26.97262765	     -5.61421279	     -4.74144437	    -77.43300690	      3.02626927	     -8.66573532	     -0.91917139	     -4.32861648	      2.95202850	      0.88101921
      0.64633333	     -3.80034766	     -2.19217637	      5.88591096	     -0.43633577	      0.89679465	      0.31957020	     13.79735442	      7.88973599	     -3.08855591	    -27.47481940	     19.86915217	      1.13060732	      2.92349397	     27.49829543	     -5.30744747	     -4.96782331	    -76.75362767	      3.26274004	     -8.57588114	     -0.92691236	     -4.31464273	      2.70036299	      1.17236578
      0.65050000	     -3.81877305	     -1.96606112	      5.72436496	     -0.43074576	      0.89809694	      0.31979308	     13.05001103	      7.71951594	     -2.89524721	    -26.77352364	     19.80781358	      1.23986976	      2.96403572	     27.98947553	     -4.99229050	     -5.20289851	    -75.99071963	      3.49942261	     -8.46427254	     -0.92486200	     -4.29958824	      2.43958817	      1.39900486
      0.65466667	     -3.82013339	     -1.73911544	      5.55426319	     -0.42513647	      0.89940800	      0.32002423	     12.27614795	      7.54762624	     -2.69482440	    -26.04949510	     19.72793905	      1.34553849	      3.00959181	     28.43451031	     -4.68316599	     -5.43735480	    -75.15255764	      3.73357538	     -8.31740120	     -0.91502234	     -4.30531377	      2.17848341	      1.64308621
      0.65883333	     -3.80873928	     -1.50707795	      5.37329719	     -0.41950724	      0.90071321	      0.32026202	     11.48385541	      7.36790744	     -2.49115397	    -25.31424566	     19.63422305	      1.44460261	      3.05481407	     28.83570374	     -4.37567709	     -5.67664821	    -74.24041614	      3.95974867	     -8.15106273	     -0.89871389	     -4.31790389	      1.91550176	      1.88090422
      0.66300000	     -3.78096122	     -1.28140894	      5.18596446	     -0.41386783	      0.90200789	      0.32051691	     10.66601459	      7.19534621	     -2.27588010	    -24.55503427	     19.52139269	      1.53830109	      3.10800802	     29.19667270	     -4.08154627	     -5.90928119	    -73.26342537	      4.18055277	     -7.96529849	     -0.87452467	     -4.35484459	      1.65414233	      2.14044350
      0.66716667	     -3.74714046	     -1.04602049	      4.98668051	     -0.40822885	      0.90327698	      0.32078255	      9.84729953	      7.00597023	     -2.06775745	    -23.80156262	     19.39350604	      1.62586740	      3.15539383	     29.52240964	     -3.78470212	     -6.14926692	    -72.21493184	      4.38646686	     -7.76424581	     -0.84790065	     -4.38583495	      1.38831511	      2.36734485
